<svg width="600" height="99" viewBox="0 0 600 99" fill="none" xmlns="http://www.w3.org/2000/svg">
<path d="M6.43416 31.089C6.43416 24.1044 8.69276 17.9359 13.21 12.5836C19.8909 5.10557 28.9822 1.36655 40.484 1.36655C50.1257 1.36655 60.2989 4.44128 71.0036 10.5907H71.1174C71.0415 11.1601 68.5931 17.9929 63.7722 31.089C63.4306 31.089 63.2598 31.013 63.2598 30.8612C56.8066 26.6477 50.4104 24.5409 44.0712 24.5409C41.7556 24.3132 39.4781 24.6358 37.2384 25.5089C35.0368 26.344 33.841 28.0712 33.6512 30.6904C33.4994 33.2716 34.2966 35.2076 36.0427 36.4982C37.8268 37.7509 40.3891 38.7189 43.7295 39.4021C51.8909 40.5789 57.2052 41.5089 59.6726 42.1922C62.8232 43.0652 65.7082 44.242 68.3274 45.7224C70.3393 46.7473 72.7877 48.93 75.6726 52.2705C78.5575 55.573 80 59.6346 80 64.4555C80 69.2384 79.5065 73.2242 78.5196 76.4128C77.5326 79.5635 75.0273 83.2076 71.0036 87.3452C63.032 94.2918 51.8529 97.7651 37.4662 97.7651C23.1174 97.7651 10.6287 94.5006 -2.6226e-06 87.9715L7.97153 66.9039C10.2871 68.7639 14.5575 70.5291 20.7829 72.1993C27.0463 73.8695 32.7402 74.7046 37.8648 74.7046C43.0273 74.7046 46.6904 74.0593 48.8541 72.7687C51.0558 71.4781 52.0807 69.7319 51.9288 67.5302C51.777 65.3286 50.7711 63.6204 48.911 62.4057C47.051 61.2669 43.5777 60.1851 38.4911 59.1601C33.4425 58.1352 29.5326 57.0913 26.7616 56.0285C13.21 50.9419 6.43416 42.6287 6.43416 31.089ZM86.1028 69.0107V29.5516C86.1028 20.3274 89.9367 13.2669 97.6045 8.3701C105.31 3.47331 113.68 1.02491 122.715 1.02491C131.749 1.02491 139.019 2.52432 144.523 5.52313C150.065 8.52194 153.918 12.0901 156.081 16.2278C158.283 20.3654 159.384 24.6168 159.384 28.9822V69.637C159.384 73.9644 158.283 78.1969 156.081 82.3345C153.918 86.4721 150.065 90.0403 144.523 93.0391C139.019 96.038 131.749 97.5374 122.715 97.5374C113.68 97.5374 105.31 95.089 97.6045 90.1922C89.9367 85.2954 86.1028 78.2349 86.1028 69.0107ZM111.555 36.0427V62.5196C111.555 66.6572 112.485 69.4852 114.345 71.0036C116.205 72.5219 119.052 73.395 122.886 73.6228C126.72 73.8505 129.51 73.0154 131.256 71.1174C133.04 69.1815 133.932 66.3915 133.932 62.7473V35.8719C133.932 32.1898 133.04 29.3998 131.256 27.5018C129.51 25.5658 126.72 24.7117 122.886 24.9395C119.052 25.1673 116.205 26.0403 114.345 27.5587C112.485 29.0771 111.555 31.9051 111.555 36.0427ZM164.228 69.0107V29.5516C164.228 20.3274 168.062 13.2669 175.73 8.3701C183.435 3.47331 191.805 1.02491 200.84 1.02491C209.874 1.02491 217.144 2.52432 222.648 5.52313C228.19 8.52194 232.043 12.0901 234.206 16.2278C236.408 20.3654 237.509 24.6168 237.509 28.9822V69.637C237.509 73.9644 236.408 78.1969 234.206 82.3345C232.043 86.4721 228.19 90.0403 222.648 93.0391C217.144 96.038 209.874 97.5374 200.84 97.5374C191.805 97.5374 183.435 95.089 175.73 90.1922C168.062 85.2954 164.228 78.2349 164.228 69.0107ZM189.68 36.0427V62.5196C189.68 66.6572 190.61 69.4852 192.47 71.0036C194.33 72.5219 197.177 73.395 201.011 73.6228C204.845 73.8505 207.635 73.0154 209.381 71.1174C211.165 69.1815 212.057 66.3915 212.057 62.7473V35.8719C212.057 32.1898 211.165 29.3998 209.381 27.5018C207.635 25.5658 204.845 24.7117 201.011 24.9395C197.177 25.1673 194.33 26.0403 192.47 27.5587C190.61 29.0771 189.68 31.9051 189.68 36.0427ZM243.435 97.879L243.378 1.08185H290.239C296.237 1.08185 301.779 2.50534 306.865 5.35231C314.837 10.5528 318.766 17.6512 318.652 26.6477C318.576 35.6441 314.609 42.1922 306.751 46.2918C309.712 47.1649 312.597 48.3796 315.406 49.9359C318.253 51.4543 320.683 54.3582 322.694 58.6477C324.706 62.8992 325.56 68.0237 325.257 74.0213C324.953 80.019 322.448 85.3903 317.741 90.1352C313.072 94.8802 305.992 97.4804 296.502 97.9359L243.435 97.879ZM270.196 26.4199V38.3772H285.114C288.91 37.618 290.581 35.4353 290.125 31.8292C289.707 28.223 287.658 26.4199 283.976 26.4199H270.196ZM270.31 56.8256V73.9075H288.246C289.613 73.9075 291.055 73.6987 292.573 73.2811C294.092 72.8256 295.363 71.3832 296.388 68.9537C297.413 66.5243 297.185 63.9051 295.705 61.0961C294.225 58.2491 291.321 56.8256 286.993 56.8256H270.31ZM331.661 1.02491H356.373V61.6655C356.373 64.6643 356.771 67.0937 357.569 68.9537C358.366 70.7758 360.264 71.9336 363.262 72.427C366.299 72.8826 368.88 72.465 371.006 71.1744C373.17 69.8837 374.328 67.0368 374.48 62.6334V1.02491H398.394V63.9431C398.926 68.688 401.07 71.4021 404.828 72.0854C408.586 72.7307 411.471 72.1234 413.483 70.2633C414.812 69.3144 415.761 67.0178 416.33 63.3737V1.02491H441.213V74.2491C440.871 79.4496 438.802 84.2705 435.006 88.7117C432.007 91.4828 428.61 93.6845 424.814 95.3167C421.018 96.949 415.894 97.6323 409.44 97.3665C403.025 97.1008 398.166 95.7153 394.864 93.21C391.561 90.7046 388.714 87.3262 386.323 83.0747C385.754 84.5931 384.862 86.2064 383.647 87.9146C382.47 89.5848 380.819 91.1412 378.693 92.5836C376.567 93.9881 374.404 95.1649 372.202 96.1139C370 97.0249 367.381 97.5943 364.344 97.8221C361.308 98.0498 357.398 97.5753 352.615 96.3986C347.908 94.9941 344.586 93.6465 342.65 92.3559C340.752 91.0652 338.892 89.395 337.07 87.3452C334.223 84.0047 332.42 79.7722 331.661 74.6477V1.02491ZM462.318 5.92171C465.696 3.87188 470.992 2.37247 478.204 1.42348C485.417 0.474495 492.116 0.721232 498.304 2.1637C504.491 3.56821 509.578 6.64294 513.564 11.3879C517.587 16.1329 519.808 20.4792 520.226 24.427C520.681 28.3369 520.852 31.2788 520.738 33.2527L520.681 98.0498H495.912V70.2064H472.795V98.1068L447.969 98.0498V30.6334C447.817 27.6726 448.178 24.6738 449.051 21.637C449.962 18.6002 451.556 15.7343 453.834 13.0391C456.15 10.344 458.978 7.97153 462.318 5.92171ZM494.204 27.7295C493.103 25.1483 490.105 23.8007 485.208 23.6868C480.349 23.573 477.046 24.7497 475.3 27.2171C473.554 29.6845 472.719 32.8161 472.795 36.6121V47.8292C472.795 48.019 472.871 48.1139 473.023 48.1139H495.685C495.836 48.1139 495.912 48.019 495.912 47.8292V36.9537C495.912 33.3476 495.343 30.2728 494.204 27.7295ZM549.698 97.879L549.641 65.4235C545.579 64.2088 541.669 62.4057 537.911 60.0142C530.206 55.1174 526.353 48.0569 526.353 38.8327V1.19572H551.805V32.3416C551.805 36.4792 552.735 39.3072 554.595 40.8256C556.455 42.344 559.302 43.2171 563.136 43.4448C566.97 43.6726 569.76 42.8375 571.506 40.9395C573.29 39.0036 574.182 36.2135 574.182 32.5694V1.19572H599.634V39.4591C599.634 43.7865 598.533 48.019 596.331 52.1566C594.168 56.2942 590.334 59.8624 584.83 62.8612C582.324 64.2278 579.477 65.2716 576.289 65.9929V97.9359L549.698 97.879Z" fill="white"/>
</svg>
