<svg width="64" height="64" viewBox="0 0 64 64" fill="none" xmlns="http://www.w3.org/2000/svg">
<path d="M58 32C58 38.8956 55.2607 45.5088 50.3848 50.3848C45.5088 55.2607 38.8956 58 32 58C25.1044 58 18.4912 55.2607 13.6152 50.3848C8.73928 45.5088 6 38.8956 6 32C6 21.75 11.9525 12.41 21.165 8.1825C21.4037 8.07284 21.6616 8.01127 21.9241 8.0013C22.1866 7.99134 22.4484 8.03316 22.6947 8.1244C22.941 8.21563 23.167 8.35448 23.3596 8.53303C23.5523 8.71158 23.7078 8.92632 23.8175 9.165C23.9272 9.40367 23.9887 9.66161 23.9987 9.92408C24.0087 10.1866 23.9668 10.4484 23.8756 10.6947C23.7844 10.941 23.6455 11.167 23.467 11.3596C23.2884 11.5523 23.0737 11.7078 22.835 11.8175C15.0375 15.3975 10 23.3175 10 32C10 37.8348 12.3179 43.4305 16.4437 47.5563C20.5695 51.6821 26.1652 54 32 54C37.8348 54 43.4306 51.6821 47.5564 47.5563C51.6822 43.4305 54 37.8348 54 32C54 23.3175 48.9625 15.3975 41.165 11.8175C40.683 11.596 40.3087 11.1922 40.1244 10.6947C39.9401 10.1973 39.961 9.64703 40.1825 9.165C40.404 8.68297 40.8078 8.30865 41.3053 8.1244C41.8027 7.94014 42.353 7.96104 42.835 8.1825C52.0475 12.41 58 21.75 58 32Z" fill="#FFE819"/>
</svg>
